<svg xmlns="http://www.w3.org/2000/svg" xmlns:xlink="http://www.w3.org/1999/xlink" viewBox="0 0 500 500"><defs><style>.cls-1,.cls-14{fill:none;}.cls-2{fill:#fffbe1;}.cls-3{fill:#f4eed3;}.cls-4{fill:#08846c;}.cls-5{fill:#04725d;}.cls-6{fill:#90d2dd;}.cls-7{fill:#0e263f;}.cls-8{fill:#191717;}.cls-9{fill:#ad1d0e;}.cls-10{clip-path:url(#clip-path);}.cls-11{clip-path:url(#clip-path-2);}.cls-12{fill:#fff;}.cls-13{fill:#ffaf99;}.cls-14{stroke:#000;stroke-linecap:round;stroke-linejoin:round;stroke-width:0.5px;}.cls-15{fill:#e56e5a;}.cls-16{fill:#931609;}.cls-17{fill:#e58373;}.cls-18{fill:#ce5849;}.cls-19{fill:#bf7022;}.cls-20{fill:#964b00;}</style><clipPath id="clip-path"><rect class="cls-1" x="207.72" y="357.88" width="148.61" height="39.48"/></clipPath><clipPath id="clip-path-2"><polygon class="cls-1" points="241.02 109.07 377.65 109.07 363.6 245.7 226.96 245.7 241.02 109.07"/></clipPath></defs><g id="BACKGROUND"><rect class="cls-2" y="1.82" width="500" height="498.18"/><rect class="cls-3" width="500" height="130"/><rect class="cls-3" y="212.48" width="500" height="60.72"/><rect class="cls-3" y="359.03" width="500" height="17.35"/><rect class="cls-3" y="419.68" width="500" height="80.32"/></g><g id="OBJECTS"><path class="cls-4" d="M76.89,419.29c-18.77-16-34.21-62.54-16.22-68.77,22.13-7.66,26.06,35.49,22.14,67.1Z"/><path class="cls-4" d="M118.54,416.3c10.81-5.94,23.08-27.16,14.89-32-10.06-6-16.34,14.74-17.62,30.62Z"/><path class="cls-5" d="M97.12,418.93c-15.23-26.63-13.71-87.59,10-87.3,29.12.35,13.49,67.22-4.91,87.66Z"/><rect class="cls-4" x="68.49" y="414.5" width="57.47" height="4.79"/><path class="cls-4" d="M99.8,414.5c5.19-16.34,11.68-51.82,10.06-81.52a10.68,10.68,0,0,0-.2-1.13Z"/><path class="cls-6" d="M371.37,93.55a24.79,24.79,0,0,1,49-7.48,7.78,7.78,0,0,1,8.47,1,15.15,15.15,0,0,1,29.07,6c0,.16,0,.31,0,.47Z"/><path class="cls-6" d="M97.16,104.22a12.38,12.38,0,0,0-9.25,4.15,19.69,19.69,0,0,0-37.55,8.27h59.23A12.43,12.43,0,0,0,97.16,104.22Z"/><path class="cls-6" d="M175.63,50.34a7.82,7.82,0,0,0-6,2.8A16.06,16.06,0,0,0,140,51.07a20.67,20.67,0,0,0-40.08,7.12h83.6A7.84,7.84,0,0,0,175.63,50.34Z"/><path class="cls-7" d="M202.54,417.59A14.87,14.87,0,0,1,196,411.2C194.44,408.22,202.54,417.59,202.54,417.59Z"/><path class="cls-7" d="M403.24,64.21c-3.32-6.09-7.35-7.54-11.63-7.54s1.67,7.91,1.67,7.91Z"/><path d="M197.87,408.81a8.86,8.86,0,0,0,9,9.95H358.71a11.34,11.34,0,0,0,11-9.95L404.51,69.57a8.87,8.87,0,0,0-9-9.95H243.67a11.35,11.35,0,0,0-11,9.95Z"/><path class="cls-8" d="M194.69,405.86a8.87,8.87,0,0,0,9,9.95H355.53a11.35,11.35,0,0,0,11-9.95L401.33,66.61a8.85,8.85,0,0,0-9-9.94H240.49a11.34,11.34,0,0,0-11,9.94Z"/><path class="cls-3" d="M234.91,75.56a3.42,3.42,0,0,1,3.31-3H390.55a2.67,2.67,0,0,1,2.7,3l-32.7,318.82a3.39,3.39,0,0,1-3.3,3H204.91a2.65,2.65,0,0,1-2.69-3Z"/><path class="cls-8" d="M340.49,70.92c1.1,0,1.44.7.76,1.56L335,80.29a4.69,4.69,0,0,1-3.24,1.57h-41a3.88,3.88,0,0,1-3-1.73l-4.43-7.49c-.56-1-.12-1.72,1-1.72Z"/><path d="M385.16,77.61h-11a.17.17,0,0,0-.16.17l-.11,1.76h-.86a.17.17,0,0,0-.16.17l-.18,3a.15.15,0,0,0,.14.17h.87l-.1,1.76a.15.15,0,0,0,.14.17h11a.17.17,0,0,0,.16-.17l.4-6.88a.15.15,0,0,0-.14-.17ZM383.33,83H379.9l.2-3.5h3.44Z"/><path d="M369.67,81.3h0a2.82,2.82,0,0,0,.32-1.15,2.31,2.31,0,0,0-2.21-2.58,2.67,2.67,0,0,0-2.51,2.58,2.73,2.73,0,0,0,.19,1.15h0l.08.16.09.18,1.49,3c.19.38.35.28.51,0l1.85-3c0-.06.07-.12.11-.17Zm-2-2.43a1.16,1.16,0,0,1,1.1,1.29,1.33,1.33,0,0,1-1.25,1.29,1.16,1.16,0,0,1-1.11-1.29A1.34,1.34,0,0,1,367.7,78.87Z"/><path d="M357,80.89h-.7a.58.58,0,0,0-.54.56l-.16,2.82a.5.5,0,0,0,.48.56h.69a.56.56,0,0,0,.54-.56l.17-2.82A.5.5,0,0,0,357,80.89Z"/><path d="M359.45,79h-.7a.58.58,0,0,0-.54.56l-.28,4.73a.51.51,0,0,0,.48.56h.7a.58.58,0,0,0,.54-.56l.28-4.73A.51.51,0,0,0,359.45,79Z"/><path d="M361.9,77.15h-.7a.58.58,0,0,0-.54.56l-.38,6.56a.51.51,0,0,0,.48.56h.7a.58.58,0,0,0,.54-.56l.38-6.56A.5.5,0,0,0,361.9,77.15Z"/><polygon class="cls-2" points="369.8 304.23 211.54 304.23 215.79 262.61 374.05 262.61 369.8 304.23"/><polygon class="cls-9" points="373.78 266.77 215.52 266.77 233.43 89.89 391.69 89.89 373.78 266.77"/><polygon class="cls-2" points="323.15 333.13 252.57 333.13 253.23 326.66 323.81 326.66 323.15 333.13"/><polygon class="cls-2" points="276.86 341.59 251.7 341.59 252.17 337.03 277.33 337.03 276.86 341.59"/><polygon class="cls-2" points="304.1 341.59 278.94 341.59 279.41 337.03 304.56 337.03 304.1 341.59"/><path class="cls-9" d="M323.5,276.75h-70c-4.74.12-9,4.33-9.51,9.52s2.85,9.4,7.57,9.52h70c4.82,0,9.17-4.27,9.7-9.53S328.33,276.75,323.5,276.75Z"/><path class="cls-2" d="M256,287.89a1.78,1.78,0,0,0,1.8,2H294a2.29,2.29,0,0,0,2.21-2l.32-3.21a1.77,1.77,0,0,0-1.79-2H258.5a2.26,2.26,0,0,0-2.2,2Z"/><path class="cls-4" d="M215.37,352.36a1.78,1.78,0,0,0,1.8,2h17.29a2.28,2.28,0,0,0,2.21-2l3.72-36.46a1.77,1.77,0,0,0-1.8-2H221.3a2.26,2.26,0,0,0-2.2,2Z"/><path class="cls-2" d="M355.14,337.36a1.47,1.47,0,0,1-1.37,1.34,1.15,1.15,0,0,1-1.09-1.34,1.47,1.47,0,0,1,1.37-1.34A1.15,1.15,0,0,1,355.14,337.36Z"/><path class="cls-2" d="M355.57,333.13a1.46,1.46,0,0,1-1.37,1.33,1.13,1.13,0,0,1-1.08-1.33,1.45,1.45,0,0,1,1.36-1.34A1.15,1.15,0,0,1,355.57,333.13Z"/><path class="cls-2" d="M356,328.89a1.46,1.46,0,0,1-1.36,1.34,1.14,1.14,0,0,1-1.09-1.34,1.45,1.45,0,0,1,1.36-1.33A1.13,1.13,0,0,1,356,328.89Z"/><g class="cls-10"><polygon class="cls-2" points="318.4 383.06 247.82 383.06 248.48 376.59 319.06 376.59 318.4 383.06"/><polygon class="cls-2" points="272.11 391.52 246.95 391.52 247.42 386.96 272.58 386.96 272.11 391.52"/><polygon class="cls-2" points="299.35 391.52 274.19 391.52 274.66 386.96 299.81 386.96 299.35 391.52"/><path class="cls-4" d="M210.62,402.29a1.78,1.78,0,0,0,1.8,2h17.29a2.28,2.28,0,0,0,2.21-2l3.72-36.47a1.78,1.78,0,0,0-1.8-2H216.55a2.27,2.27,0,0,0-2.2,2Z"/><path class="cls-2" d="M350.39,387.29a1.47,1.47,0,0,1-1.37,1.34,1.15,1.15,0,0,1-1.09-1.34A1.47,1.47,0,0,1,349.3,386,1.15,1.15,0,0,1,350.39,387.29Z"/><path class="cls-2" d="M350.82,383.05a1.47,1.47,0,0,1-1.37,1.34,1.14,1.14,0,0,1-1.08-1.34,1.45,1.45,0,0,1,1.36-1.33A1.15,1.15,0,0,1,350.82,383.05Z"/><path class="cls-2" d="M351.25,378.82a1.46,1.46,0,0,1-1.36,1.34,1.14,1.14,0,0,1-1.09-1.34,1.45,1.45,0,0,1,1.36-1.33A1.13,1.13,0,0,1,351.25,378.82Z"/></g><g class="cls-11"><polygon class="cls-12" points="241 109.05 226.94 245.7 363.6 245.7 377.66 109.05 241 109.05"/></g><polygon points="287.16 118.47 291.87 118.47 291.38 123.19 286.67 123.19 287.16 118.47"/><polygon points="296.58 118.47 301.29 118.47 300.81 123.19 296.1 123.19 296.58 118.47"/><polygon points="301.29 118.47 306 118.47 305.52 123.19 300.81 123.19 301.29 118.47"/><polygon points="315.43 118.47 320.14 118.47 319.66 123.19 314.94 123.19 315.43 118.47"/><polygon points="291.38 123.19 296.1 123.19 295.61 127.9 290.9 127.9 291.38 123.19"/><polygon points="296.1 123.19 300.81 123.19 300.32 127.9 295.61 127.9 296.1 123.19"/><polygon points="305.52 123.19 310.23 123.19 309.75 127.9 305.04 127.9 305.52 123.19"/><polygon points="286.19 127.9 290.9 127.9 290.41 132.61 285.7 132.61 286.19 127.9"/><polygon points="290.9 127.9 295.61 127.9 295.13 132.61 290.41 132.61 290.9 127.9"/><polygon points="305.04 127.9 309.75 127.9 309.26 132.61 304.55 132.61 305.04 127.9"/><polygon points="309.75 127.9 314.46 127.9 313.98 132.61 309.26 132.61 309.75 127.9"/><polygon points="319.17 127.9 323.88 127.9 323.4 132.61 318.69 132.61 319.17 127.9"/><polygon points="323.88 127.9 328.6 127.9 328.11 132.61 323.4 132.61 323.88 127.9"/><polygon points="295.13 132.61 299.84 132.61 299.35 137.32 294.64 137.32 295.13 132.61"/><polygon points="299.84 132.61 304.55 132.61 304.07 137.32 299.35 137.32 299.84 132.61"/><polygon points="309.26 132.61 313.98 132.61 313.49 137.32 308.78 137.32 309.26 132.61"/><polygon points="313.98 132.61 318.69 132.61 318.2 137.32 313.49 137.32 313.98 132.61"/><polygon points="323.4 132.61 328.11 132.61 327.63 137.32 322.91 137.32 323.4 132.61"/><polygon points="289.93 137.32 294.64 137.32 294.16 142.04 289.44 142.04 289.93 137.32"/><polygon points="299.35 137.32 304.07 137.32 303.58 142.04 298.87 142.04 299.35 137.32"/><polygon points="313.49 137.32 318.2 137.32 317.72 142.04 313 142.04 313.49 137.32"/><polygon points="284.73 142.04 289.44 142.04 288.96 146.75 284.25 146.75 284.73 142.04"/><polygon points="294.16 142.04 298.87 142.04 298.38 146.75 293.67 146.75 294.16 142.04"/><polygon points="308.29 142.04 313 142.04 312.52 146.75 307.81 146.75 308.29 142.04"/><polygon points="322.43 142.04 327.14 142.04 326.66 146.75 321.94 146.75 322.43 142.04"/><polygon points="284.25 146.75 288.96 146.75 288.48 151.46 283.76 151.46 284.25 146.75"/><polygon points="293.67 146.75 298.38 146.75 297.9 151.46 293.19 151.46 293.67 146.75"/><polygon points="303.1 146.75 307.81 146.75 307.32 151.46 302.61 151.46 303.1 146.75"/><polygon points="312.52 146.75 317.23 146.75 316.75 151.46 312.04 151.46 312.52 146.75"/><polygon points="321.94 146.75 326.66 146.75 326.17 151.46 321.46 151.46 321.94 146.75"/><polygon points="312.04 151.46 316.75 151.46 316.26 156.17 311.55 156.17 312.04 151.46"/><polygon points="321.46 151.46 326.17 151.46 325.69 156.17 320.98 156.17 321.46 151.46"/><polygon points="245.58 156.17 250.29 156.17 249.81 160.88 245.1 160.88 245.58 156.17"/><polygon points="255 156.17 259.72 156.17 259.23 160.88 254.52 160.88 255 156.17"/><polygon points="273.85 156.17 278.57 156.17 278.08 160.88 273.37 160.88 273.85 156.17"/><polygon points="278.57 156.17 283.28 156.17 282.79 160.88 278.08 160.88 278.57 156.17"/><polygon points="292.7 156.17 297.41 156.17 296.93 160.88 292.22 160.88 292.7 156.17"/><polygon points="297.41 156.17 302.13 156.17 301.64 160.88 296.93 160.88 297.41 156.17"/><polygon points="311.55 156.17 316.26 156.17 315.78 160.88 311.07 160.88 311.55 156.17"/><polygon points="316.26 156.17 320.98 156.17 320.49 160.88 315.78 160.88 316.26 156.17"/><polygon points="320.98 156.17 325.69 156.17 325.2 160.88 320.49 160.88 320.98 156.17"/><polygon points="335.11 156.17 339.82 156.17 339.34 160.88 334.63 160.88 335.11 156.17"/><polygon points="349.25 156.17 353.96 156.17 353.48 160.88 348.76 160.88 349.25 156.17"/><polygon points="358.67 156.17 363.38 156.17 362.9 160.88 358.19 160.88 358.67 156.17"/><polygon points="245.1 160.88 249.81 160.88 249.32 165.6 244.61 165.6 245.1 160.88"/><polygon points="249.81 160.88 254.52 160.88 254.03 165.6 249.32 165.6 249.81 160.88"/><polygon points="268.66 160.88 273.37 160.88 272.88 165.6 268.17 165.6 268.66 160.88"/><polygon points="278.08 160.88 282.79 160.88 282.31 165.6 277.6 165.6 278.08 160.88"/><polygon points="282.79 160.88 287.5 160.88 287.02 165.6 282.31 165.6 282.79 160.88"/><polygon points="292.22 160.88 296.93 160.88 296.44 165.6 291.73 165.6 292.22 160.88"/><polygon points="306.35 160.88 311.07 160.88 310.58 165.6 305.87 165.6 306.35 160.88"/><polygon points="315.78 160.88 320.49 160.88 320 165.6 315.29 165.6 315.78 160.88"/><polygon points="320.49 160.88 325.2 160.88 324.72 165.6 320 165.6 320.49 160.88"/><polygon points="325.2 160.88 329.91 160.88 329.43 165.6 324.72 165.6 325.2 160.88"/><polygon points="329.91 160.88 334.63 160.88 334.14 165.6 329.43 165.6 329.91 160.88"/><polygon points="334.63 160.88 339.34 160.88 338.85 165.6 334.14 165.6 334.63 160.88"/><polygon points="344.05 160.88 348.76 160.88 348.28 165.6 343.56 165.6 344.05 160.88"/><polygon points="353.48 160.88 358.19 160.88 357.7 165.6 352.99 165.6 353.48 160.88"/><polygon points="358.19 160.88 362.9 160.88 362.41 165.6 357.7 165.6 358.19 160.88"/><polygon points="249.32 165.6 254.03 165.6 253.55 170.31 248.84 170.31 249.32 165.6"/><polygon points="254.03 165.6 258.75 165.6 258.26 170.31 253.55 170.31 254.03 165.6"/><polygon points="263.46 165.6 268.17 165.6 267.69 170.31 262.97 170.31 263.46 165.6"/><polygon points="268.17 165.6 272.88 165.6 272.4 170.31 267.69 170.31 268.17 165.6"/><polygon points="272.88 165.6 277.6 165.6 277.11 170.31 272.4 170.31 272.88 165.6"/><polygon points="277.6 165.6 282.31 165.6 281.82 170.31 277.11 170.31 277.6 165.6"/><polygon points="282.31 165.6 287.02 165.6 286.54 170.31 281.82 170.31 282.31 165.6"/><polygon points="296.44 165.6 301.16 165.6 300.67 170.31 295.96 170.31 296.44 165.6"/><polygon points="301.16 165.6 305.87 165.6 305.38 170.31 300.67 170.31 301.16 165.6"/><polygon points="315.29 165.6 320 165.6 319.52 170.31 314.81 170.31 315.29 165.6"/><polygon points="329.43 165.6 334.14 165.6 333.66 170.31 328.94 170.31 329.43 165.6"/><polygon points="343.56 165.6 348.28 165.6 347.79 170.31 343.08 170.31 343.56 165.6"/><polygon points="348.28 165.6 352.99 165.6 352.5 170.31 347.79 170.31 348.28 165.6"/><polygon points="357.7 165.6 362.41 165.6 361.93 170.31 357.22 170.31 357.7 165.6"/><polygon points="244.13 170.31 248.84 170.31 248.35 175.02 243.64 175.02 244.13 170.31"/><polygon points="248.84 170.31 253.55 170.31 253.06 175.02 248.35 175.02 248.84 170.31"/><polygon points="253.55 170.31 258.26 170.31 257.78 175.02 253.06 175.02 253.55 170.31"/><polygon points="262.97 170.31 267.69 170.31 267.2 175.02 262.49 175.02 262.97 170.31"/><polygon points="286.54 170.31 291.25 170.31 290.76 175.02 286.05 175.02 286.54 170.31"/><polygon points="300.67 170.31 305.38 170.31 304.9 175.02 300.19 175.02 300.67 170.31"/><polygon points="319.52 170.31 324.23 170.31 323.75 175.02 319.04 175.02 319.52 170.31"/><polygon points="324.23 170.31 328.94 170.31 328.46 175.02 323.75 175.02 324.23 170.31"/><polygon points="328.94 170.31 333.66 170.31 333.17 175.02 328.46 175.02 328.94 170.31"/><polygon points="333.66 170.31 338.37 170.31 337.88 175.02 333.17 175.02 333.66 170.31"/><polygon points="343.08 170.31 347.79 170.31 347.31 175.02 342.6 175.02 343.08 170.31"/><polygon points="243.64 175.02 248.35 175.02 247.87 179.73 243.16 179.73 243.64 175.02"/><polygon points="257.78 175.02 262.49 175.02 262 179.73 257.29 179.73 257.78 175.02"/><polygon points="267.2 175.02 271.91 175.02 271.43 179.73 266.72 179.73 267.2 175.02"/><polygon points="271.91 175.02 276.63 175.02 276.14 179.73 271.43 179.73 271.91 175.02"/><polygon points="276.63 175.02 281.34 175.02 280.85 179.73 276.14 179.73 276.63 175.02"/><polygon points="281.34 175.02 286.05 175.02 285.56 179.73 280.85 179.73 281.34 175.02"/><polygon points="290.76 175.02 295.47 175.02 294.99 179.73 290.28 179.73 290.76 175.02"/><polygon points="314.32 175.02 319.04 175.02 318.55 179.73 313.84 179.73 314.32 175.02"/><polygon points="319.04 175.02 323.75 175.02 323.26 179.73 318.55 179.73 319.04 175.02"/><polygon points="328.46 175.02 333.17 175.02 332.69 179.73 327.97 179.73 328.46 175.02"/><polygon points="356.73 175.02 361.44 175.02 360.96 179.73 356.25 179.73 356.73 175.02"/><polygon points="247.87 179.73 252.58 179.73 252.09 184.44 247.38 184.44 247.87 179.73"/><polygon points="262 179.73 266.72 179.73 266.23 184.44 261.52 184.44 262 179.73"/><polygon points="266.72 179.73 271.43 179.73 270.94 184.44 266.23 184.44 266.72 179.73"/><polygon points="276.14 179.73 280.85 179.73 280.37 184.44 275.66 184.44 276.14 179.73"/><polygon points="313.84 179.73 318.55 179.73 318.06 184.44 313.35 184.44 313.84 179.73"/><polygon points="318.55 179.73 323.26 179.73 322.78 184.44 318.06 184.44 318.55 179.73"/><polygon points="323.26 179.73 327.97 179.73 327.49 184.44 322.78 184.44 323.26 179.73"/><polygon points="327.97 179.73 332.69 179.73 332.2 184.44 327.49 184.44 327.97 179.73"/><polygon points="332.69 179.73 337.4 179.73 336.91 184.44 332.2 184.44 332.69 179.73"/><polygon points="351.54 179.73 356.25 179.73 355.76 184.44 351.05 184.44 351.54 179.73"/><polygon points="356.25 179.73 360.96 179.73 360.47 184.44 355.76 184.44 356.25 179.73"/><polygon points="242.67 184.44 247.38 184.44 246.9 189.16 242.19 189.16 242.67 184.44"/><polygon points="247.38 184.44 252.09 184.44 251.61 189.16 246.9 189.16 247.38 184.44"/><polygon points="252.09 184.44 256.81 184.44 256.32 189.16 251.61 189.16 252.09 184.44"/><polygon points="270.94 184.44 275.66 184.44 275.17 189.16 270.46 189.16 270.94 184.44"/><polygon points="280.37 184.44 285.08 184.44 284.6 189.16 279.88 189.16 280.37 184.44"/><polygon points="285.08 184.44 289.79 184.44 289.31 189.16 284.6 189.16 285.08 184.44"/><polygon points="289.79 184.44 294.5 184.44 294.02 189.16 289.31 189.16 289.79 184.44"/><polygon points="294.5 184.44 299.22 184.44 298.73 189.16 294.02 189.16 294.5 184.44"/><polygon points="308.64 184.44 313.35 184.44 312.87 189.16 308.16 189.16 308.64 184.44"/><polygon points="313.35 184.44 318.06 184.44 317.58 189.16 312.87 189.16 313.35 184.44"/><polygon points="318.06 184.44 322.78 184.44 322.29 189.16 317.58 189.16 318.06 184.44"/><polygon points="327.49 184.44 332.2 184.44 331.72 189.16 327 189.16 327.49 184.44"/><polygon points="341.63 184.44 346.34 184.44 345.85 189.16 341.14 189.16 341.63 184.44"/><polygon points="346.34 184.44 351.05 184.44 350.56 189.16 345.85 189.16 346.34 184.44"/><polygon points="355.76 184.44 360.47 184.44 359.99 189.16 355.28 189.16 355.76 184.44"/><polygon points="256.32 189.16 261.04 189.16 260.55 193.87 255.84 193.87 256.32 189.16"/><polygon points="279.88 189.16 284.6 189.16 284.11 193.87 279.4 193.87 279.88 189.16"/><polygon points="308.16 189.16 312.87 189.16 312.38 193.87 307.67 193.87 308.16 189.16"/><polygon points="312.87 189.16 317.58 189.16 317.1 193.87 312.38 193.87 312.87 189.16"/><polygon points="322.29 189.16 327 189.16 326.52 193.87 321.81 193.87 322.29 189.16"/><polygon points="327 189.16 331.72 189.16 331.23 193.87 326.52 193.87 327 189.16"/><polygon points="331.72 189.16 336.43 189.16 335.94 193.87 331.23 193.87 331.72 189.16"/><polygon points="336.43 189.16 341.14 189.16 340.66 193.87 335.94 193.87 336.43 189.16"/><polygon points="341.14 189.16 345.85 189.16 345.37 193.87 340.66 193.87 341.14 189.16"/><polygon points="241.7 193.87 246.41 193.87 245.93 198.58 241.22 198.58 241.7 193.87"/><polygon points="246.41 193.87 251.13 193.87 250.64 198.58 245.93 198.58 246.41 193.87"/><polygon points="255.84 193.87 260.55 193.87 260.06 198.58 255.35 198.58 255.84 193.87"/><polygon points="260.55 193.87 265.26 193.87 264.78 198.58 260.06 198.58 260.55 193.87"/><polygon points="269.97 193.87 274.69 193.87 274.2 198.58 269.49 198.58 269.97 193.87"/><polygon points="274.69 193.87 279.4 193.87 278.91 198.58 274.2 198.58 274.69 193.87"/><polygon points="293.54 193.87 298.25 193.87 297.76 198.58 293.05 198.58 293.54 193.87"/><polygon points="298.25 193.87 302.96 193.87 302.47 198.58 297.76 198.58 298.25 193.87"/><polygon points="312.38 193.87 317.1 193.87 316.61 198.58 311.9 198.58 312.38 193.87"/><polygon points="317.1 193.87 321.81 193.87 321.32 198.58 316.61 198.58 317.1 193.87"/><polygon points="321.81 193.87 326.52 193.87 326.04 198.58 321.32 198.58 321.81 193.87"/><polygon points="326.52 193.87 331.23 193.87 330.75 198.58 326.04 198.58 326.52 193.87"/><polygon points="331.23 193.87 335.94 193.87 335.46 198.58 330.75 198.58 331.23 193.87"/><polygon points="335.94 193.87 340.66 193.87 340.17 198.58 335.46 198.58 335.94 193.87"/><polygon points="350.08 193.87 354.79 193.87 354.31 198.58 349.6 198.58 350.08 193.87"/><polygon points="278.91 198.58 283.63 198.58 283.14 203.29 278.43 203.29 278.91 198.58"/><polygon points="283.63 198.58 288.34 198.58 287.85 203.29 283.14 203.29 283.63 198.58"/><polygon points="297.76 198.58 302.47 198.58 301.99 203.29 297.28 203.29 297.76 198.58"/><polygon points="302.47 198.58 307.19 198.58 306.7 203.29 301.99 203.29 302.47 198.58"/><polygon points="311.9 198.58 316.61 198.58 316.13 203.29 311.41 203.29 311.9 198.58"/><polygon points="316.61 198.58 321.32 198.58 320.84 203.29 316.13 203.29 316.61 198.58"/><polygon points="335.46 198.58 340.17 198.58 339.69 203.29 334.97 203.29 335.46 198.58"/><polygon points="354.31 198.58 359.02 198.58 358.54 203.29 353.82 203.29 354.31 198.58"/><polygon points="278.43 203.29 283.14 203.29 282.66 208.01 277.94 208.01 278.43 203.29"/><polygon points="287.85 203.29 292.56 203.29 292.08 208.01 287.37 208.01 287.85 203.29"/><polygon points="297.28 203.29 301.99 203.29 301.5 208.01 296.79 208.01 297.28 203.29"/><polygon points="316.13 203.29 320.84 203.29 320.35 208.01 315.64 208.01 316.13 203.29"/><polygon points="325.55 203.29 330.26 203.29 329.78 208.01 325.06 208.01 325.55 203.29"/><polygon points="334.97 203.29 339.69 203.29 339.2 208.01 334.49 208.01 334.97 203.29"/><polygon points="353.82 203.29 358.54 203.29 358.05 208.01 353.34 208.01 353.82 203.29"/><polygon points="292.08 208.01 296.79 208.01 296.31 212.72 291.6 212.72 292.08 208.01"/><polygon points="296.79 208.01 301.5 208.01 301.02 212.72 296.31 212.72 296.79 208.01"/><polygon points="306.22 208.01 310.93 208.01 310.44 212.72 305.73 212.72 306.22 208.01"/><polygon points="310.93 208.01 315.64 208.01 315.16 212.72 310.44 212.72 310.93 208.01"/><polygon points="315.64 208.01 320.35 208.01 319.87 212.72 315.16 212.72 315.64 208.01"/><polygon points="334.49 208.01 339.2 208.01 338.72 212.72 334 212.72 334.49 208.01"/><polygon points="286.88 212.72 291.6 212.72 291.11 217.43 286.4 217.43 286.88 212.72"/><polygon points="296.31 212.72 301.02 212.72 300.53 217.43 295.82 217.43 296.31 212.72"/><polygon points="310.44 212.72 315.16 212.72 314.67 217.43 309.96 217.43 310.44 212.72"/><polygon points="315.16 212.72 319.87 212.72 319.38 217.43 314.67 217.43 315.16 212.72"/><polygon points="319.87 212.72 324.58 212.72 324.1 217.43 319.38 217.43 319.87 212.72"/><polygon points="324.58 212.72 329.29 212.72 328.81 217.43 324.1 217.43 324.58 212.72"/><polygon points="329.29 212.72 334 212.72 333.52 217.43 328.81 217.43 329.29 212.72"/><polygon points="334 212.72 338.72 212.72 338.23 217.43 333.52 217.43 334 212.72"/><polygon points="348.14 212.72 352.85 212.72 352.37 217.43 347.66 217.43 348.14 212.72"/><polygon points="281.69 217.43 286.4 217.43 285.91 222.14 281.2 222.14 281.69 217.43"/><polygon points="300.53 217.43 305.25 217.43 304.76 222.14 300.05 222.14 300.53 217.43"/><polygon points="314.67 217.43 319.38 217.43 318.9 222.14 314.19 222.14 314.67 217.43"/><polygon points="333.52 217.43 338.23 217.43 337.75 222.14 333.03 222.14 333.52 217.43"/><polygon points="342.94 217.43 347.66 217.43 347.17 222.14 342.46 222.14 342.94 217.43"/><polygon points="347.66 217.43 352.37 217.43 351.88 222.14 347.17 222.14 347.66 217.43"/><polygon points="276.49 222.14 281.2 222.14 280.72 226.85 276 226.85 276.49 222.14"/><polygon points="285.91 222.14 290.63 222.14 290.14 226.85 285.43 226.85 285.91 222.14"/><polygon points="290.63 222.14 295.34 222.14 294.85 226.85 290.14 226.85 290.63 222.14"/><polygon points="300.05 222.14 304.76 222.14 304.28 226.85 299.56 226.85 300.05 222.14"/><polygon points="314.19 222.14 318.9 222.14 318.41 226.85 313.7 226.85 314.19 222.14"/><polygon points="318.9 222.14 323.61 222.14 323.13 226.85 318.41 226.85 318.9 222.14"/><polygon points="328.32 222.14 333.03 222.14 332.55 226.85 327.84 226.85 328.32 222.14"/><polygon points="333.03 222.14 337.75 222.14 337.26 226.85 332.55 226.85 333.03 222.14"/><polygon points="337.75 222.14 342.46 222.14 341.97 226.85 337.26 226.85 337.75 222.14"/><polygon points="347.17 222.14 351.88 222.14 351.4 226.85 346.69 226.85 347.17 222.14"/><polygon points="351.88 222.14 356.6 222.14 356.11 226.85 351.4 226.85 351.88 222.14"/><polygon points="280.72 226.85 285.43 226.85 284.94 231.57 280.23 231.57 280.72 226.85"/><polygon points="290.14 226.85 294.85 226.85 294.37 231.57 289.65 231.57 290.14 226.85"/><polygon points="294.85 226.85 299.56 226.85 299.08 231.57 294.37 231.57 294.85 226.85"/><polygon points="304.28 226.85 308.99 226.85 308.5 231.57 303.79 231.57 304.28 226.85"/><polygon points="313.7 226.85 318.41 226.85 317.93 231.57 313.22 231.57 313.7 226.85"/><polygon points="318.41 226.85 323.13 226.85 322.64 231.57 317.93 231.57 318.41 226.85"/><polygon points="323.13 226.85 327.84 226.85 327.35 231.57 322.64 231.57 323.13 226.85"/><polygon points="327.84 226.85 332.55 226.85 332.06 231.57 327.35 231.57 327.84 226.85"/><polygon points="332.55 226.85 337.26 226.85 336.78 231.57 332.06 231.57 332.55 226.85"/><polygon points="275.52 231.57 280.23 231.57 279.75 236.28 275.03 236.28 275.52 231.57"/><polygon points="284.94 231.57 289.65 231.57 289.17 236.28 284.46 236.28 284.94 231.57"/><polygon points="294.37 231.57 299.08 231.57 298.6 236.28 293.88 236.28 294.37 231.57"/><polygon points="303.79 231.57 308.5 231.57 308.02 236.28 303.31 236.28 303.79 231.57"/><polygon points="313.22 231.57 317.93 231.57 317.44 236.28 312.73 236.28 313.22 231.57"/><polygon points="317.93 231.57 322.64 231.57 322.15 236.28 317.44 236.28 317.93 231.57"/><polygon points="336.78 231.57 341.49 231.57 341 236.28 336.29 236.28 336.78 231.57"/><polygon points="350.91 231.57 355.63 231.57 355.14 236.28 350.43 236.28 350.91 231.57"/><path d="M277.5,118.48h-28l-3.39,33h33l3.39-33Zm-2.89,28H251.52l2.38-23.09H277Z"/><path d="M362.32,118.48h-28l-3.4,33h33l3.39-33Zm-2.89,28H336.34l2.38-23.09h23.09Z"/><path d="M268.77,203.29h-28l-3.39,33h33l3.4-33Zm-2.89,28H242.79l2.38-23.09h23.09Z"/><polygon points="257.91 127.9 272.05 127.9 270.6 142.04 256.46 142.04 257.91 127.9"/><polygon points="342.73 127.9 356.87 127.9 355.41 142.04 341.28 142.04 342.73 127.9"/><polygon points="249.19 212.72 263.32 212.72 261.87 226.85 247.73 226.85 249.19 212.72"/><path class="cls-13" d="M386.25,364.07c0,8.58.86,23.29-1.56,39.14a188.93,188.93,0,0,0-1.9,32.92c0,7.19-1.8,8.69-1.8,8.69l-30.85,7V447l15.24-12.66-6.33-68.9Z"/><path class="cls-13" d="M428.58,369.94c-.46,8.06-2.1,38-2.67,56.73-.88,5,1.48,17.39,1.48,17.39l-16.84-2.56s-.18-15-.18-18.79-7.53-58.64-7.53-58.64l25.77,1.47Z"/><polygon class="cls-2" points="408.33 405.14 426.81 404.07 426.08 425.2 416.13 439.26 411.57 440.33 410.55 432.86 408.33 405.14"/><path class="cls-2" d="M362.45,402.48l22,2.49s-1.92,16.53-1.76,28.13v8.46l-9.23,1.38-8.93-3.67.54-8.52Z"/><ellipse cx="389.77" cy="455.06" rx="65.62" ry="9.41"/><path class="cls-4" d="M436.61,449.83c.44-2.72-.55-7.69-3.08-11.73l-1.47-6h0s.05-7.58-6.52-8.17c-9.82-.88-9.46,8.17-9.46,8.17h-6.46l-.17,6.05-1.87,15Z"/><path class="cls-2" d="M436.61,455.51H407.66c-1.18-.26-.53-5.12.2-6.3h8.63a12.56,12.56,0,0,1,11.67-7.65c7.57,0,8.47,5.48,8.47,5.48l0,2.79Z"/><path class="cls-4" d="M384,433.1a68.44,68.44,0,0,1,3.55,21H339.83s-2.42-11.87,10.77-13.85c6.16-.88,5.75-7.2,5.75-7.2s-4.57-6.58-1.06-6.58c8.95,0,10.7,6.58,10.7,6.58Z"/><path class="cls-2" d="M382.67,433.1c-.11,3.79-4.58,7.31-8.54,7.31s-7.26-3.07-8.14-7.31l7.14-1.63Z"/><path class="cls-2" d="M387.35,450c.93.87,1.67,5.82.82,5.82H340.05c-1.28,0-1.39-4.08-.34-5.07,0,0-.43-6.31,5.49-8.7,4.79-1.94,6.89,8.5,6.89,8.5l15.06-.25s1.48,2.61,8,2.61c6.05,0,9.2-2.86,9.2-2.86Z"/><path class="cls-2" d="M416.05,432.12c-.15,1.95-.92,6.88-3.45,6.43-2-.36-2.05-6.43-2.05-6.43l2.75-1.37Z"/><line class="cls-14" x1="356.35" y1="433.1" x2="362.72" y2="435.64"/><line class="cls-14" x1="356.46" y1="436.28" x2="361.31" y2="437.77"/><line class="cls-14" x1="354.7" y1="438.84" x2="358.89" y2="439.69"/><path class="cls-14" d="M429.85,433.79a15.68,15.68,0,0,0-11,.1"/><path class="cls-14" d="M430.4,436.46s-5.12-2-12.26.27"/><polygon class="cls-9" points="431.48 362.54 433.86 276.96 417.55 255.92 362.15 254.88 348.13 276.9 354.75 362.38 352.52 364.45 354.27 374.96 389.07 374.96 391.14 364.77 388.6 362.86 389.62 315.1 391 315.08 400.97 363.02 399.06 365.25 399.6 374.96 432.91 374.96 433.55 365.88 431.48 362.54"/><path d="M348.16,279.4l33.26-.65s8.13-1.26,9.44-5.7v5.7l8.56-.67,33.77,3.25.67-4.37-42.05-15.32L348.13,276.9Z"/><polygon class="cls-13" points="369.16 153.8 383.88 148.68 397.04 148.68 412.34 153.49 415.46 168 390.62 185.26 367.6 166.54 369.16 153.8"/><path class="cls-13" d="M386,138.11c1.35,4.71-2.11,10.57-2.11,10.57l14.24.34s-3.17-5.58-1.52-10.69Z"/><path d="M386.22,140.67a7.76,7.76,0,0,0,5.31,3c1.63,0,3.87-1.6,4.64-2.69a8.18,8.18,0,0,1,.43-2.62H386.22A11.38,11.38,0,0,1,386.22,140.67Z"/><path class="cls-15" d="M404,131.79a3.19,3.19,0,0,1-3.74,2.57,2.83,2.83,0,0,1-2.06-3.6,2.93,2.93,0,0,1,3.6-2.06C403.4,129.13,404.46,130.23,404,131.79Z"/><path class="cls-15" d="M378.87,131.79a3.18,3.18,0,0,0,3.74,2.57,2.84,2.84,0,0,0,2.06-3.6,2.93,2.93,0,0,0-3.61-2.06C379.5,129.13,378.44,130.23,378.87,131.79Z"/><path class="cls-13" d="M381.36,126.81c0,9.92,5.6,14.59,10.17,14.59s10.17-6.71,10.17-14.59Z"/><circle class="cls-13" cx="391.53" cy="126.81" r="10.17"/><path d="M384.88,128.74a4.75,4.75,0,0,1,2-.87,3.87,3.87,0,0,1,1.13-.08,2.35,2.35,0,0,1,1.11.41.24.24,0,0,1,.05.35.21.21,0,0,1-.2.1h-.06c-.29,0-.62,0-.93,0s-.6.07-.94.1a19,19,0,0,0-1.93.41h0a.26.26,0,0,1-.31-.19A.24.24,0,0,1,384.88,128.74Z"/><path d="M397.61,129.18a18.41,18.41,0,0,0-1.93-.41c-.33,0-.63-.1-.94-.1s-.63,0-.92,0h-.06a.24.24,0,0,1-.26-.24.27.27,0,0,1,.1-.21,2.35,2.35,0,0,1,1.11-.41,3.82,3.82,0,0,1,1.13.08,4.75,4.75,0,0,1,2,.87.26.26,0,0,1,0,.36.26.26,0,0,1-.26.09Z"/><path d="M388.25,130.52a.62.62,0,1,1-.62-.62A.62.62,0,0,1,388.25,130.52Z"/><circle cx="395.1" cy="130.52" r="0.62"/><path class="cls-15" d="M391.54,129.65c.43,0,.9,5.13.9,5.13h-1.82S391.06,129.65,391.54,129.65Z"/><path class="cls-9" d="M378.77,150.46s-16,5.31-22.22,11.29c-6.59,6.35-.93,41.31-.93,41.31s1,7.21-4.16,20.19c-4,10.1,3,16.63-1,28.09S345,276.9,345,276.9h34.37c7.8,0,12.78-7,12.78-14.25,0-5.64-.3-58.9-.3-82.48,0-13.37-6.43-21.17-6.43-21.17Z"/><path class="cls-9" d="M404.59,151s16.3,5.49,22.71,11.27c7.59,6.85,10.06,16.71,13.58,22.95.92,1.64.49,2.48,1.17,3.89a63.1,63.1,0,0,1,3.31,7.93l-17.95,7.55a38.52,38.52,0,0,0,3.4,19.37c4.84,10.46-2.6,21,.55,28.57A76.34,76.34,0,0,1,437,277H392.16V265.63c0-7.26-.35-85.46-.35-85.46Z"/><path class="cls-9" d="M385.61,144.63a2.12,2.12,0,0,0,.38,2.51,70.79,70.79,0,0,1,4.43,6l1.28,5.57L393,153s2.92-5.35,3.28-6.05a2.42,2.42,0,0,0,.23-2.48,6.73,6.73,0,0,1,2.38,1.16c.62.66,2.85,4.49,2.85,4.49l2.89.89.74,10.61-13.8,21-12-20.28L378,150.67l3.1-1.07s2.85-3.83,3.2-4.33A2.29,2.29,0,0,1,385.61,144.63Z"/><path d="M381.06,149.6a22.05,22.05,0,0,0,4.1,9.79l4.95-6L385,161.75A19.06,19.06,0,0,1,381.06,149.6Z"/><path d="M401.7,150.15a22.05,22.05,0,0,1-4.1,9.79l-4.48-6.32,4.64,8.69A19.11,19.11,0,0,0,401.7,150.15Z"/><path d="M382.07,132.47l.61-.66s-1.07-4.58-.66-5.74c.58-1.64,5.65-1.4,8.09-5.57h0a13.72,13.72,0,0,0,6.2,3.29c2.24.6,3.84,1.3,4.17,2.19s-.28,5.52-.28,5.52l.65.65a43.43,43.43,0,0,0,2.32-5.34c.95-3.08,1.61-6.28-.18-9-1.16-1.81-3.75-4.49-5.84-5a2.78,2.78,0,0,0-2.42,1.19s-2.92-3.22-6.48-3c-4.37.26-10.29,5.71-10.68,10.22C377.37,123.52,381.14,132.47,382.07,132.47Z"/><path d="M392.5,195.66a.62.62,0,0,0,1.24,0,.62.62,0,1,0-1.24,0Z"/><circle cx="395.37" cy="228.66" r="0.62"/><path d="M392.5,160.81a.62.62,0,1,0,.62-.62A.62.62,0,0,0,392.5,160.81Z"/><path d="M393.12,174.87a.62.62,0,1,0,.62-.62A.62.62,0,0,0,393.12,174.87Z"/><path d="M394.28,261.64a.61.61,0,0,0,.61.62.62.62,0,0,0,0-1.24A.61.61,0,0,0,394.28,261.64Z"/><path d="M394.75,211.54a.62.62,0,1,0,.62-.62A.62.62,0,0,0,394.75,211.54Z"/><path d="M393.66,244a.62.62,0,0,0,.62.62.62.62,0,0,0,0-1.24A.62.62,0,0,0,393.66,244Z"/><path class="cls-16" d="M355.62,203.06s-2.5-11,2.81-17.06a15.14,15.14,0,0,0-4.58,7,52.55,52.55,0,0,0-2,8.78Z"/><path class="cls-16" d="M427.41,204.63c.31-3.34.1-10.52-1.87-14.47l5.6,12.9Z"/><path class="cls-16" d="M401.4,256.11s21.33-5.73,28.92-22.27C430.32,233.84,435.21,254,401.4,256.11Z"/><path class="cls-16" d="M409.87,246.44S422.72,243,427.3,233C427.3,233,424.56,245.13,409.87,246.44Z"/><path class="cls-16" d="M359.47,206.14c4.36,4.68,16.11,13.44,24.12,15.71C383.59,221.85,362.6,222.7,359.47,206.14Z"/><path class="cls-15" d="M388.79,136.62s1.69-.89,2.62-.21c.77-.58,2.52.27,2.52.27a12.23,12.23,0,0,1-1.59.7,2.33,2.33,0,0,1-.84,0,2.72,2.72,0,0,1-1,0A17,17,0,0,1,388.79,136.62Z"/><path d="M378,150.67c-10,1.71-21.65,5.56-28.77,18.3-2,3.51-16,27.82-18.16,34.09-1.41,4,17.53,13.76,21.4,9.7,0,0,2.73,5.41-3.88,16.43-7.27,12.1-1.59,28.35-7.56,45.94-3.86,11.37,1.29,48.53,1.29,48.53s.37,5,12.92,5,23.88-10.73,25.12-26.94c.53-6.92,6.3-78.18,5.9-95.56S375.16,156.27,378,150.67Z"/><path d="M405.76,151.45c10,1.72,23.09,4.85,30.2,17.6,2,3.51,16.12,28.35,18.52,32.82,2,3.75-17.88,15-21.76,11a67.58,67.58,0,0,0,3.55,24.28c5,13.89,1.44,26.17,5.9,44.21,3.19,12.87.7,42.41.7,42.41s-.37,5-12.92,5S403.16,318,401.7,301.82c-1.29-14.33-.69-79.81-.3-97.19S408.56,157.06,405.76,151.45Z"/><path d="M422.86,212.74c4.49,7.24,15.62,19.39,22.51,17.27s15-17.61,9.11-28.14l-20.36,1.77Z"/><path d="M364.81,219.65c-4.5,7.24-17.35,12.48-24.23,10.36s-15-17.61-9.11-28.14l20.43,3.07Z"/><polygon points="369.19 206.49 365.47 209.87 364.72 216.8 364.48 209.32 369.19 206.49"/><polygon points="420.3 196.92 424.15 200.64 425.08 210.36 425.41 200.03 420.3 196.92"/><path class="cls-13" d="M383.75,183.35s-6.86,3.19-8.58,3.83c-2.29.86-3.68,5.9-1.89,9s4.42,5.1,6.8,5.29l1.08-3.85.76-10.91Z"/><path class="cls-13" d="M382.85,183.76,393.11,179c1.71-.8,3.23.94,1.26,1.91s-8.79,5.44-8.79,5.44,7,9,4.92,10.32-9,5.14-10.42,4.82-2.1-10.81-2.1-10.81Z"/><rect class="cls-2" x="392.5" y="172.14" width="18.71" height="35.01" rx="2.43"/><path class="cls-13" d="M411.25,200.91l-.14-7.12s-3.89-2.22-4.81-2.66-1.64-1.27-1.33-2.07a1.29,1.29,0,0,1,1.74-.43c.8.41,4.87,1.91,4.87,1.91s-5.05-3.08-5.77-3.63-.66-2.13.62-1.87a45.78,45.78,0,0,1,5.25,2.13s-4.67-3-5.69-3.69-.13-2.29.73-2,5.06,2.58,5.06,2.58-4.66-3.61-5.21-4-.59-2.39.84-2a22.58,22.58,0,0,1,4.47,2.71,2.71,2.71,0,0,1,1.18,3.53s.69,1.91-.08,3.06c0,0,1.78,2.22.35,3.8a4.52,4.52,0,0,1,.42,2.41,13.51,13.51,0,0,1-2.5,7.31"/><path class="cls-13" d="M412.7,185.66s5.7,5,7.17,6.09c2,1.47,1.88,6.69-.72,9.19s-5.67,3.66-8,3.18l0-4,2.34-10.68Z"/><path d="M395.3,174.54a.71.71,0,1,1-.71-.71A.71.71,0,0,1,395.3,174.54Z"/><path d="M397.42,174.54a.71.71,0,0,1-.71.71.71.71,0,0,1,0-1.42A.71.71,0,0,1,397.42,174.54Z"/><path d="M395.3,176.43a.71.71,0,1,1-.71-.71A.71.71,0,0,1,395.3,176.43Z"/><path d="M396.71,176.22a.21.21,0,0,1,.21.21.21.21,0,0,1-.21.21.2.2,0,0,1-.2-.21.21.21,0,0,1,.2-.21m0-.5a.71.71,0,0,0,0,1.42.71.71,0,1,0,0-1.42Z"/><polygon points="428.3 374.96 404.32 374.96 407.24 396.76 407.58 377.77 428.3 374.96"/><path d="M359.92,375h26.42a138.11,138.11,0,0,1-.32,15.67l-1.93-12.91Z"/><path d="M382.07,132.47c-2.5-.22-4.65-3.13-4.41-6.12a5.7,5.7,0,0,1-4.09-4.8c-.56-4,2.51-5.44,4.39-5.9,0,0-2.73-3.6,0-6.55s7.13-1.11,8.22,1.1c0,0,1.54-3.78,5-3s3.32,4.7,3.32,4.7a4.71,4.71,0,0,1,5.55-2c3.69,1.22,2.77,5.93,2.77,5.93s3.78.55,4.06,3.78a4.63,4.63,0,0,1-2.22,4.52s1.89,1.17,1.13,4.46-5,3.65-5,3.65l1-7.65s-3.84-6-4.44-6-9.32-1.58-10.41-1.21-4.51,1.75-5.24,3a15.36,15.36,0,0,0-1.37,5.17C380.49,125.89,382.07,132.47,382.07,132.47Z"/><path d="M193.55,124.48c.66,4.3,2.3,7.1,6.41,8.07s10,1.48,10.89,6.12c.73,3.85-2.38,6.91-2.38,10.59,0,5.59,5,11.07,5,11.07l-14.28,8.47-14.79-15.49L184,139.07Z"/><path class="cls-2" d="M225.33,423.73c-.18,2.36-1.12,8.34-4.18,7.79-2.41-.43-2.49-7.79-2.49-7.79l3.33-1.66Z"/><path class="cls-17" d="M161.24,432.17c-.88-3.25-14.63-76.73-14.63-76.73s-4.93-43.43-2.53-89.83V236.14h75.83v30.41c2.65,8.79,14.42,92.28,14.42,92.28l11.61,71.94H219.49L182.76,305.1H180L178.84,365l8,67.19Z"/><path class="cls-17" d="M185.42,430.77c-.11,3.76-2.84,7.26-6.77,7.26s-7.22-3-8.09-7.26Z"/><path d="M155.05,426.45c-.12-3.25-.28-6.34-.46-9.32-.07-1.06,2.11-3.33,1.92-4.35C153.9,398.64,145.35,354,145.35,354l-2.53-44.83.47-43.67h77.59l7.17,47.33c5.85,44.46,10.93,75.93,15.78,97.06.28,1.19,2.36,2.67,2.44,3.74.6,8.16,1,12.46,1,12.46H214.1a42.29,42.29,0,0,1-3.89-11.39c-.22-1.25,2-2.53,1.55-3.89-5.07-14.54-25.33-89.08-25.33-89.08l-2.71.22,4.35,91.15,2.35,3.2-.09,10.15Z"/><path class="cls-17" d="M228.6,175.06c7.93,15.15,14.08,49.81,17.18,57.88,4.62,9.88,11.37,32.24,16.7,46.22,0,0-4.72,16.76-9.33,7.87-2.93-5.64-22.89-39.77-25.1-52.57-2.75-12.21-17.9-48.61-17.9-48.61C209.52,164.76,228.6,175.06,228.6,175.06Z"/><path class="cls-17" d="M274.62,305.63c-.31-.78-2.93-6.69-3.19-7.19-.17-.31-5.95-13.73-8.95-19.28-3.76.28-9.33,7.87-9.33,7.87a61.65,61.65,0,0,1,3.13,7.71c-.23,3.88,1.64,7.27,1.27,8.89-.16.72.74,1.13,1.49.07s.08-2.39.75-3.9c2.11,5.11,3.93,8.16,4.7,10.41.22.67,1,1.57,1.6,1.33s.55-1,.3-2-2.76-7.41-2.76-7.41l3.8,7.14c.35.66.78,1.44,1.58,1.16.43-.15.58-.79.32-1.69-.71-2.44-2-7.3-2-7.3s3.15,6.4,3.51,7.12,1,.91,1.44.65.37-.75.07-1.61-2.56-6.35-2.56-6.35,3.28,5.17,3.53,5.62c.43.77,1.16.9,1.45.65S275,306.56,274.62,305.63Z"/><polygon class="cls-17" points="154.19 158.5 171.62 152.44 187.21 152.44 205.33 158.13 209.03 175.31 182.17 185.17 152.34 173.59 154.19 158.5"/><path class="cls-17" d="M174.12,143.85c1.6,5.58-3.29,8.86-3.29,8.86l20.07.89s-5.35-6.82-3.39-12.87Z"/><path d="M174.4,146.89c1.27,1.9,3.83,3.66,6.1,3.24a7.62,7.62,0,0,0,5-3.56c.77-1.22,1.31-4.34,1.69-5.65L173.8,144A7.55,7.55,0,0,1,174.4,146.89Z"/><path class="cls-18" d="M165.68,136.37a3.78,3.78,0,0,0,4.43,3,3.34,3.34,0,0,0,2.44-4.26,3.47,3.47,0,0,0-4.27-2.44C166.43,133.21,165.17,134.52,165.68,136.37Z"/><path class="cls-17" d="M168.64,130.47c.48,11.64,5.89,17,10.86,17.19,5.42.21,10-7.85,10-17.19Z"/><circle class="cls-17" cx="180.68" cy="130.47" r="12.05" transform="translate(-36.33 79.74) rotate(-22.68)"/><path d="M170.57,134.65a5.81,5.81,0,0,1,2.37-1,4.45,4.45,0,0,1,1.32-.1,2.88,2.88,0,0,1,1.3.44.25.25,0,0,1,.06.35.24.24,0,0,1-.23.11h0a8.14,8.14,0,0,0-1.11,0c-.37,0-.73.08-1.13.12a20,20,0,0,0-2.29.53h0a.25.25,0,0,1-.21-.45Z"/><path d="M185.64,135.09a19.52,19.52,0,0,0-2.29-.53c-.39,0-.76-.11-1.13-.12a8.14,8.14,0,0,0-1.11,0h-.05a.25.25,0,0,1-.27-.23.25.25,0,0,1,.1-.23,2.92,2.92,0,0,1,1.3-.44,4.43,4.43,0,0,1,1.32.1,5.85,5.85,0,0,1,2.38,1,.25.25,0,0,1,.05.35.24.24,0,0,1-.27.1Z"/><path d="M174.53,135.93a.73.73,0,1,1-.73-.73A.73.73,0,0,1,174.53,135.93Z"/><path d="M181.92,135.93a.73.73,0,1,0,.73-.73A.73.73,0,0,0,181.92,135.93Z"/><path class="cls-18" d="M177.78,135.64c.51,0,1.06,5.5,1.06,5.5h-2.15S177.21,135.64,177.78,135.64Z"/><path d="M169.47,137.17v-5a11.2,11.2,0,0,0,5.79-7,30,30,0,0,0,.38-3.27s-1.11,9.11,15.62,9.55c1.12,0-7.08-21-16.47-12.41a6.79,6.79,0,0,0-7,3.77C165.3,127.44,169.47,137.17,169.47,137.17Z"/><path d="M187.79,140.31V129.69s.22-3.12-.76-4.76-11.44-7.2-8.16-8a13.45,13.45,0,0,1,13.87,5.76c1.53,2.33,2.07,7.46.69,11C191.88,137.64,187.79,140.31,187.79,140.31Z"/><path class="cls-18" d="M193.81,136.37a3.77,3.77,0,0,1-4.43,3c-1.9-.3,0-7.21,1.83-6.7S194.32,134.52,193.81,136.37Z"/><path class="cls-2" d="M175.57,142.64h5.85a7.57,7.57,0,0,1-2,1.33,2.69,2.69,0,0,1-1,0,3.07,3.07,0,0,1-1.16,0A3.8,3.8,0,0,1,175.57,142.64Z"/><path class="cls-17" d="M146.61,165.55C141,170.62,133,186.13,126.69,210.7c-11.77-.91-19.08-1.82-36-4.18-4.55-.63-1.45,6.87-1.47,11.83l12.34,2.52s39.45,10.72,41.68.07c3.7-17.72,11.69-40.38,11.69-40.38Z"/><path class="cls-19" d="M239.73,182.36s-21-24-36.37-25.49c-5.3,6-12.42,13.36-23.22,13.36s-17.69-8.44-20.76-13.67a16,16,0,0,0-4.5.66c-14.44,4.24-25.72,27.21-25.72,27.21l16.48,17.95-9.54,56.31,5.26,2.92,2.72,4.34,36.26,1.77L219.91,266l.94-4.66,5.09-2.86L217.35,201Z"/><polygon class="cls-20" points="217.03 200.98 210.15 182.36 223.44 195.91 217.03 200.98"/><polygon class="cls-20" points="145.64 202.38 151.53 185.85 141.68 197.94 145.64 202.38"/><polygon class="cls-20" points="225.94 258.43 136.1 258.69 141.36 261.61 180.82 263.72 220.85 261.29 225.94 258.43"/><path class="cls-20" d="M206.86,157.35c-4.29,7.15-14.53,20.4-25.79,20.4s-23-13.65-26.19-20.53l4.5-.66c4.56,6.67,11.75,13.47,22.12,13.62,5.59.09,15.87-7,21.86-13.31A34.32,34.32,0,0,1,206.86,157.35Z"/><path class="cls-17" d="M67.32,215c.68.16,8,1.21,8.45,1.26.3,0,10.15,1.83,15.39,2.37,1.58-2.73-1-10.14-1-10.14-2.18-.21-6.14-.85-6.67-1-2.57-2-5.78-2.29-6.73-3.31-.42-.45-1.13,0-.75,1s1.61,1.18,2.34,2.36c-4.52-1-7.48-1.13-9.4-1.67-.57-.16-1.53-.07-1.66.49s.45.86,1.26,1.16,6.41,1.59,6.41,1.59l-6.71-.74c-.63-.07-1.36-.14-1.55.54-.1.37.27.77,1,1,2,.67,6,2.08,6,2.08L67.09,211c-.67-.09-1.1.26-1.13.68s.35.61,1.08.81,5.59,1.22,5.59,1.22-5.11-.17-5.54-.21c-.73-.06-1.17.38-1.13.69S66.5,214.79,67.32,215Z"/><polygon points="142.16 222.91 142.82 203.75 134.47 190.21 145.64 202.38 142.16 222.91"/><polygon class="cls-18" points="134.47 190.21 139.5 206.92 142.16 222.91 142.82 203.75 134.47 190.21"/><polygon points="49.15 218.8 98.18 224.98 110.79 203.93 61.65 198.85 49.46 215.82 49.15 218.8"/><polygon points="98.18 224.98 98.43 222.56 49.46 215.82 49.15 218.8 98.18 224.98"/><polygon points="40.4 170.96 52.51 154.77 61.65 198.85 49.46 215.82 40.4 170.96"/><polygon points="40.4 170.96 40.22 172.63 47.79 216.2 49.46 215.82 40.4 170.96"/><polygon class="cls-12" points="41.48 172.43 52.35 157.91 60.55 197.46 49.62 212.68 41.48 172.43"/><polygon class="cls-18" points="107.86 208.82 105.6 218.6 114.8 223.82 100.73 220.71 107.86 208.82"/><path d="M233.58,187.47,220.36,204s8.06,32.23,8,32.18S218,205.47,218,205.47L217,201Z"/><polygon class="cls-18" points="233.58 188.24 223.44 206.56 230.3 241.94 220.37 203.96 233.58 188.24"/><ellipse cx="196.07" cy="454.37" rx="70.54" ry="10.12"/><path class="cls-9" d="M250.28,447.48c.54-3.29-.66-9.33-3.73-14.24L244.77,426h0s0-9.2-7.92-9.92C224.93,415,225.37,426,225.37,426h-7.85l-.2,7.34-2.27,18.24Z"/><path class="cls-2" d="M250.28,454.37H215.14c-1.42-.31-.64-6.21.25-7.64h10.47A15.26,15.26,0,0,1,240,437.45c9.19,0,10.28,6.65,10.28,6.65l0,3.38Z"/><path class="cls-9" d="M188.35,430a73.54,73.54,0,0,1,3.82,22.63H140.92s-2.6-12.76,11.58-14.89c6.61-.95,6.18-7.74,6.18-7.74s-4.92-7.07-1.14-7.07c9.61,0,11.5,7.07,11.5,7.07Z"/><path class="cls-2" d="M187,430c-.12,4.08-4.93,7.86-9.18,7.86S170,434.53,169,430l-2.13-3.52H187Z"/><path class="cls-2" d="M192,448.11c1,.94,1.8,6.26.87,6.26H141.15c-1.38,0-1.49-4.38-.36-5.45,0,0-.47-6.78,5.9-9.35,5.15-2.08,7.4,9.14,7.4,9.14l16.19-.27s1.6,2.8,8.57,2.8c6.5,0,9.89-3.07,9.89-3.07Z"/><line class="cls-14" x1="158.68" y1="429.97" x2="165.52" y2="432.7"/><line class="cls-14" x1="158.8" y1="433.39" x2="164" y2="434.99"/><line class="cls-14" x1="156.9" y1="436.14" x2="161.4" y2="437.06"/><path class="cls-14" d="M242.08,428a19,19,0,0,0-13.31.12"/><path class="cls-14" d="M242.74,431.25s-6.2-2.44-14.88.33"/></g></svg>